<svg id="Dark" xmlns="http://www.w3.org/2000/svg" viewBox="0 0 943.1 171.7"><defs><style>.cls-1{fill:#fff;}.cls-2{fill:#007dec;stroke:#fff;stroke-miterlimit:10;stroke-width:4.43px;}</style></defs><title>NixonworksLogoDark</title><path class="cls-1" d="M14,153V27H35.19l56.88,86V27h21V153H95.67L34.92,61.83V153Z" transform="translate(-14.04 -16.65)"/><path class="cls-1" d="M136.08,47.79V27h20.07V47.79Zm0,105.21V63.63h20.07V153Z" transform="translate(-14.04 -16.65)"/><path class="cls-1" d="M168.75,153l30.15-44.64L169,63.63h23.49L211.05,93l17-29.34h23.85L222.3,107.91l30,45.09H228.69l-18.54-29.25L192.33,153Z" transform="translate(-14.04 -16.65)"/><path class="cls-1" d="M301.59,154.8q-14.4,0-24.53-6.3a41.81,41.81,0,0,1-15.48-16.83,50.47,50.47,0,0,1-5.35-23.22,51,51,0,0,1,5.35-23.31,42,42,0,0,1,15.48-17q10.13-6.35,24.53-6.34t24.48,6.34a41.88,41.88,0,0,1,15.52,17A51,51,0,0,1,347,108.45a50.48,50.48,0,0,1-5.36,23.22,41.7,41.7,0,0,1-15.52,16.83Q315.9,154.8,301.59,154.8Zm0-16.92q11.88,0,18.31-8.06t6.44-21.37q0-13.5-6.44-21.6t-18.31-8.1q-11.88,0-18.36,8.1t-6.48,21.6q0,13.32,6.48,21.37T301.59,137.88Z" transform="translate(-14.04 -16.65)"/><path class="cls-1" d="M362.79,153V63.63H380.7l1.71,16.83-5.58-5.31a46.73,46.73,0,0,1,14.08-9.72,41,41,0,0,1,16.61-3.33q18,0,26.37,11.34t8.37,30V153H422.19V104.49q0-13.14-4.59-19.31T402.48,79a23.59,23.59,0,0,0-23,14.67l3.33-10.62V153Z" transform="translate(-14.04 -16.65)"/><path class="cls-1" d="M478.8,153,452.43,63.63h20.88l15.93,65.61,17.64-63.45h18l17.46,63.45,16.11-65.61h20.88L552.87,153H534.33L515.88,92l-18.54,61Z" transform="translate(-14.04 -16.65)"/><path class="cls-1" d="M753.74,153V63.63h18.18l1,11.43A46.6,46.6,0,0,1,783.8,65.7a24.89,24.89,0,0,1,13.41-3.87,17.45,17.45,0,0,1,4,.45l-1.62,20.43a19.44,19.44,0,0,0-3.42-.59c-1.14-.09-2.31-.13-3.51-.13a23.16,23.16,0,0,0-11.25,2.79,17.49,17.49,0,0,0-7.2,6.48V153Z" transform="translate(-14.04 -16.65)"/><path class="cls-1" d="M812.06,153V18h20.07v83.61l29.61-38H885L851.3,106.11,885.77,153H862.46l-30.33-41.76V153Z" transform="translate(-14.04 -16.65)"/><path class="cls-1" d="M922.49,154.8a63,63,0,0,1-17.28-2.12,78.76,78.76,0,0,1-13.05-4.9l2-17.91a69.61,69.61,0,0,0,12.33,6.25,41.2,41.2,0,0,0,15.3,2.75q7.38,0,11.25-2.39a8,8,0,0,0,3.87-7.33,9.08,9.08,0,0,0-2.25-6.35,18.53,18.53,0,0,0-6.08-4.23A90.3,90.3,0,0,0,920,115.2a90.86,90.86,0,0,1-13.5-5.72,26.87,26.87,0,0,1-9.59-8.23q-3.55-5-3.55-13a24.53,24.53,0,0,1,3.78-13.37,25.93,25.93,0,0,1,11.16-9.49q7.38-3.51,18.36-3.51a52.74,52.74,0,0,1,15,1.89,59.58,59.58,0,0,1,11.48,4.68l-2,17.55A60.72,60.72,0,0,0,940,79.51,31.76,31.76,0,0,0,927,77q-6.48,0-10.22,2.52A8.42,8.42,0,0,0,913,86.94a8.73,8.73,0,0,0,4.68,8.19,107.85,107.85,0,0,0,14.58,6.21,91,91,0,0,1,9.72,4.14,35.82,35.82,0,0,1,7.92,5.31,21.36,21.36,0,0,1,5.31,7.29,24.57,24.57,0,0,1,1.89,10.08,26,26,0,0,1-3.6,13.59,24.47,24.47,0,0,1-11.25,9.54Q934.64,154.8,922.49,154.8Z" transform="translate(-14.04 -16.65)"/><path class="cls-2" d="M725.12,101.87a61.31,61.31,0,0,0-2-14.8l18.13-14L727.64,49.47l-21.38,8.75a61.6,61.6,0,0,0-11.69-8.89l2.92-23-26.28-7-9,21.5a61.85,61.85,0,0,0-14.38,1.91L633.53,24.25,610,37.85l8.83,21.6A61.79,61.79,0,0,0,610,71l-23.13-3-7,26.29,21.38,9A61.77,61.77,0,0,0,603,117.82L584.75,132l13.61,23.56,21.22-8.68A61.63,61.63,0,0,0,631.39,156l-2.88,22.68,26.28,7,8.79-21a61.77,61.77,0,0,0,15-1.94l13.9,17.95L716,167.14l-8.59-21a61.55,61.55,0,0,0,9.17-12L739.17,137l7-26.28ZM663,143.6a40.8,40.8,0,1,1,40.79-40.8A40.8,40.8,0,0,1,663,143.6Z" transform="translate(-14.04 -16.65)"/></svg>